<svg xmlns="http://www.w3.org/2000/svg" viewBox="0 0 1465.13 674.92"><defs><style>.cls-1{fill:#1d1d1b;}.cls-2{fill:none;stroke:#1d1d1b;stroke-miterlimit:10;}</style></defs><g id="rectangle"><polygon class="cls-1" points="457.89 400.75 732.67 0 1015.16 392.01 732.67 303.57 457.89 400.75"/><polyline class="cls-1" points="0 658.55 293.98 382.21 720.04 431.31 292.79 198.06 0 658.55"/><polyline class="cls-1" points="1465.13 658.55 1171.14 382.21 745.09 431.31 1172.34 198.06 1465.13 658.55"/><path class="cls-1" d="M663.08,1208.6V1233H561.4V1101.67h99.24v24.38h-69v28.52h61v23.64h-61v30.39Z" transform="translate(-267.41 -646.43)"/><path class="cls-1" d="M694.22,1101.67h30.39v106.56h65.85V1233H694.22Z" transform="translate(-267.41 -646.43)"/><path class="cls-1" d="M916.16,1208.6V1233H814.47V1101.67h99.25v24.38h-69v28.52h61v23.64h-61v30.39Z" transform="translate(-267.41 -646.43)"/><path class="cls-1" d="M1071.68,1101.67,1014.84,1233h-30l-56.66-131.32H961l40,93.8,40.53-93.8Z" transform="translate(-267.41 -646.43)"/><path class="cls-1" d="M1171.67,1204.85h-61L1099.07,1233h-31.14l58.53-131.32h30L1215.2,1233h-31.89Zm-9.56-23.08-20.83-50.27-20.82,50.27Z" transform="translate(-267.41 -646.43)"/><path class="cls-1" d="M1256.47,1126.43h-42v-24.76h114.44v24.76h-42V1233h-30.4Z" transform="translate(-267.41 -646.43)"/><path class="cls-1" d="M1453.83,1208.6V1233H1352.15V1101.67h99.25v24.38h-69v28.52h61v23.64h-61v30.39Z" transform="translate(-267.41 -646.43)"/><path class="cls-1" d="M607.2,1276.8v44.36h-1.32v-41.64l-21,35.36h-.79l-21-35.23v41.51h-1.31V1276.8h1.12l21.59,36.37,21.59-36.37Z" transform="translate(-267.41 -646.43)"/><path class="cls-1" d="M674,1316.6q-4.68-4.75-4.68-14V1276.8h1.32v25.73q0,8.74,4.25,13.18t12.21,4.43q8,0,12.21-4.43t4.24-13.18V1276.8h1.32v25.79q0,9.26-4.67,14t-13.1,4.75Q678.62,1321.35,674,1316.6Z" transform="translate(-267.41 -646.43)"/><path class="cls-1" d="M768.74,1319.61a16.86,16.86,0,0,1-6.78-4.54l.92-.82a16.56,16.56,0,0,0,6.39,4.21,23.23,23.23,0,0,0,8.82,1.68q7.17,0,10.83-2.75a8.56,8.56,0,0,0,3.65-7.13,7.64,7.64,0,0,0-1.91-5.45,11.85,11.85,0,0,0-4.71-3,64.66,64.66,0,0,0-7.53-2.1,69.07,69.07,0,0,1-8-2.31,12.57,12.57,0,0,1-5-3.42,8.91,8.91,0,0,1-2.07-6.18,10.09,10.09,0,0,1,1.64-5.58,11.29,11.29,0,0,1,5.14-4,21.46,21.46,0,0,1,8.62-1.52,24.14,24.14,0,0,1,7.24,1.11,21.48,21.48,0,0,1,6.12,2.94l-.72,1a20.57,20.57,0,0,0-6-2.89,23.23,23.23,0,0,0-6.55-1q-6.91,0-10.54,2.82a8.75,8.75,0,0,0-3.62,7.19,7.77,7.77,0,0,0,1.91,5.49,11.77,11.77,0,0,0,4.74,3.07,73.78,73.78,0,0,0,7.64,2.15,72.14,72.14,0,0,1,8,2.32,12.6,12.6,0,0,1,5,3.36,8.65,8.65,0,0,1,2,6,9.71,9.71,0,0,1-1.71,5.57,11.46,11.46,0,0,1-5.24,4,22.72,22.72,0,0,1-8.79,1.49A25.42,25.42,0,0,1,768.74,1319.61Z" transform="translate(-267.41 -646.43)"/><path class="cls-1" d="M851.42,1276.8h1.32v44.36h-1.32Z" transform="translate(-267.41 -646.43)"/><path class="cls-1" d="M921.92,1318.43a22,22,0,0,1,0-38.91,25,25,0,0,1,12.05-2.91,26.06,26.06,0,0,1,8.72,1.42,18.93,18.93,0,0,1,6.95,4.22l-.79.88q-5.8-5.31-14.88-5.32a23.31,23.31,0,0,0-11.36,2.79,20.93,20.93,0,0,0-8,7.64,21.15,21.15,0,0,0,0,21.48,21,21,0,0,0,8,7.64,23.31,23.31,0,0,0,11.36,2.78q9,0,14.88-5.38l.79.88a19.22,19.22,0,0,1-7,4.25,25.69,25.69,0,0,1-8.69,1.46A24.89,24.89,0,0,1,921.92,1318.43Z" transform="translate(-267.41 -646.43)"/><path class="cls-1" d="M1068.39,1276.8h1.32V1320h27.45v1.21h-28.77Z" transform="translate(-267.41 -646.43)"/><path class="cls-1" d="M1179.51,1307.79h-28.18l-6.45,13.37h-1.51l21.39-44.36h1.32l21.39,44.36H1186Zm-.59-1.21-13.5-28.07-13.49,28.07Z" transform="translate(-267.41 -646.43)"/><path class="cls-1" d="M1278,1309.56a10,10,0,0,1-4.18,8.62q-4.18,3-12.48,3h-19.55V1276.8H1260q7.23,0,11.35,2.88a9.55,9.55,0,0,1,4.12,8.33,9.7,9.7,0,0,1-2.41,6.82,12.46,12.46,0,0,1-6.68,3.58Q1278,1299.93,1278,1309.56ZM1243.1,1278v20h17.18q6.65,0,10.27-2.57a9.47,9.47,0,0,0,0-14.89q-3.61-2.57-10.27-2.57Zm33.57,31.56c0-3.51-1.26-6.1-3.78-7.79s-6.29-2.54-11.29-2.54h-18.5V1320h18.5Q1276.68,1320,1276.67,1309.56Z" transform="translate(-267.41 -646.43)"/><path class="cls-1" d="M1366.66,1320v1.21H1336V1276.8h29.69v1.2H1337.3v20h25.41v1.2H1337.3V1320Z" transform="translate(-267.41 -646.43)"/><path class="cls-1" d="M1424.92,1276.8h1.31V1320h27.45v1.21h-28.76Z" transform="translate(-267.41 -646.43)"/><rect class="cls-2" x="991.61" y="1069.31" width="16.85" height="16.85" transform="translate(787.57 -1037.9) rotate(45)"/></g></svg>